<!DOCTYPE svg>
<svg width="720.000000pt" height="720.000000pt" viewBox="0 0 720.000000 720.000000" xmlns="http://www.w3.org/2000/svg"> <g transform="translate(0.000000,720.000000) scale(0.100000,-0.100000)" fill="#802ae7" stroke="none"> <path d="M3127 7185 c-203 -25 -464 -84 -679 -155 -336 -112 -696 -298 -991 -513 -56 -42 -138 -105 -182 -142 -102 -84 -306 -285 -403 -395 -298 -340 -551 -781 -696 -1214 -78 -230 -135 -482 -161 -704 l-15 -127 0 -330 0 -330 15 -127 c17 -145 62 -371 100 -510 70 -247 154 -460 269 -683 135 -263 307 -518 488 -725 97 -110 301 -311 403 -395 341 -284 766 -520 1173 -655 222 -72 465 -128 695 -157 l132 -17 320 0 320 0 132 17 c418 54 811 174 1178 360 248 127 484 281 690 452 102 84 306 285 403 395 298 340 551 781 696 1214 77 227 133 471 163 709 l17 132 0 320 1 320 -18 132 c-55 427 -178 823 -371 1198 -135 263 -307 518 -488 725 -97 110 -301 311 -403 395 -341 284 -766 520 -1173 655 -225 74 -475 130 -690 155 l-127 15 -345 -1 -345 -1 -108 -13z m-587 -1949 c59 -39 122 -125 194 -266 74 -144 120 -267 276 -725 209 -616 391 -1121 495 -1376 55 -133 128 -281 149 -298 l15 -13 20 7 c50 16 234 267 367 500 144 255 343 694 429 948 54 161 88 292 117 451 l23 121 -1 245 0 245 -20 71 -20 72 56 15 c156 43 242 46 314 12 l39 -19 27 -43 c16 -25 34 -67 41 -96 l12 -51 -6 -140 c-7 -163 -33 -326 -82 -511 -69 -266 -176 -537 -345 -880 -129 -262 -215 -416 -432 -779 -291 -485 -425 -678 -532 -763 l-41 -33 -33 0 -33 0 -49 46 c-145 136 -277 441 -727 1679 -249 687 -358 955 -475 1175 -57 108 -142 235 -170 254 l-19 13 60 55 c59 55 125 94 185 109 17 4 52 7 78 5 l48 -3 40 -27z" /></g></svg>