<svg t="1670080610297" class="icon" viewBox="0 0 1024 1024" version="1.1" xmlns="http://www.w3.org/2000/svg" p-id="8634" width="200" height="200"><path d="M864 416c0-194.08-157.92-352-352-352S160 221.92 160 416c0 183.392 141.024 334.304 320.32 350.4C480.288 766.976 480 767.424 480 768l0 64-128 0c-17.664 0-32 14.304-32 32s14.336 32 32 32l128 0 0 32c0 17.696 14.336 32 32 32s32-14.304 32-32l0-32 128 0c17.696 0 32-14.304 32-32s-14.304-32-32-32l-128 0 0-64c0-0.576-0.288-1.024-0.32-1.6C722.976 750.304 864 599.392 864 416zM512 704c-158.784 0-288-129.184-288-288 0-158.784 129.216-288 288-288 158.816 0 288 129.216 288 288C800 574.816 670.816 704 512 704z" p-id="8635"></path></svg>